<svg width="318" height="156" viewBox="0 0 318 156" fill="none" xmlns="http://www.w3.org/2000/svg">
<path d="M96.768 54.88C105.387 54.88 112.213 57.3973 117.248 62.432C122.283 67.3813 124.8 74.848 124.8 84.832V124H108.8V86.88C108.8 80.9067 107.477 76.4267 104.832 73.44C102.187 70.368 98.3893 68.832 93.44 68.832C88.064 68.832 83.7547 70.624 80.512 74.208C77.2693 77.7067 75.648 82.7413 75.648 89.312V124H59.648V86.88C59.648 80.9067 58.3253 76.4267 55.68 73.44C53.0347 70.368 49.2373 68.832 44.288 68.832C38.8267 68.832 34.4747 70.5813 31.232 74.08C28.0747 77.5787 26.496 82.656 26.496 89.312V124H10.496V55.648H25.728V64.352C28.288 61.28 31.488 58.9333 35.328 57.312C39.168 55.6907 43.4347 54.88 48.128 54.88C53.248 54.88 57.7707 55.8613 61.696 57.824C65.7067 59.7013 68.864 62.5173 71.168 66.272C73.984 62.688 77.6107 59.9147 82.048 57.952C86.4853 55.904 91.392 54.88 96.768 54.88ZM210.127 55.648V124H194.895V115.168C192.25 118.411 188.964 120.843 185.039 122.464C181.199 124.085 176.932 124.896 172.239 124.896C165.583 124.896 159.61 123.445 154.319 120.544C149.114 117.643 145.018 113.547 142.031 108.256C139.13 102.965 137.679 96.8213 137.679 89.824C137.679 82.8267 139.13 76.7253 142.031 71.52C145.018 66.2293 149.114 62.1333 154.319 59.232C159.61 56.3307 165.583 54.88 172.239 54.88C176.676 54.88 180.73 55.648 184.399 57.184C188.154 58.72 191.396 60.9813 194.127 63.968V55.648H210.127ZM174.031 111.2C179.919 111.2 184.783 109.237 188.623 105.312C192.463 101.387 194.383 96.224 194.383 89.824C194.383 83.424 192.463 78.2613 188.623 74.336C184.783 70.4107 179.919 68.448 174.031 68.448C168.143 68.448 163.279 70.4107 159.439 74.336C155.684 78.2613 153.807 83.424 153.807 89.824C153.807 96.224 155.684 101.387 159.439 105.312C163.279 109.237 168.143 111.2 174.031 111.2ZM243.733 65.632C248.341 58.464 256.448 54.88 268.053 54.88V70.112C266.688 69.856 265.45 69.728 264.341 69.728C258.112 69.728 253.248 71.5627 249.749 75.232C246.25 78.816 244.501 84.0213 244.501 90.848V124H228.501V55.648H243.733V65.632ZM317.466 120.288C315.589 121.824 313.285 122.976 310.554 123.744C307.909 124.512 305.093 124.896 302.106 124.896C294.597 124.896 288.794 122.933 284.698 119.008C280.602 115.083 278.554 109.365 278.554 101.856V40.544H294.554V56.16H312.858V68.96H294.554V101.472C294.554 104.8 295.365 107.36 296.986 109.152C298.693 110.859 301.039 111.712 304.026 111.712C307.61 111.712 310.597 110.773 312.986 108.896L317.466 120.288Z" fill="black"/>
<path d="M112 112H95V124H112V112Z" fill="black"/>
</svg>
